<svg xmlns="http://www.w3.org/2000/svg" width="37" height="37" viewBox="0 0 37 37">
  <g id="Grupo_892" data-name="Grupo 892" transform="translate(17872 380)">
    <g id="Grupo_891" data-name="Grupo 891">
      <g id="Grupo_887" data-name="Grupo 887" transform="translate(-17869.955 -375.029)">
        <path id="Trazado_1" data-name="Trazado 1" d="M30.3,64.9a3.4,3.4,0,1,0,3.4,3.4A3.439,3.439,0,0,0,30.3,64.9Zm0,5.785a2.419,2.419,0,1,1,2.419-2.419A2.456,2.456,0,0,1,30.3,70.685Z" transform="translate(-18.138 -43.669)" fill="#fff" stroke="#fff" stroke-width="1"/>
        <path id="Trazado_2" data-name="Trazado 2" d="M72.8,64.9a3.4,3.4,0,1,0,3.4,3.4A3.439,3.439,0,0,0,72.8,64.9Zm0,5.785a2.419,2.419,0,1,1,2.419-2.419A2.456,2.456,0,0,1,72.8,70.685Z" transform="translate(-46.748 -43.669)" fill="#fff" stroke="#fff" stroke-width="1"/>
        <path id="Trazado_3" data-name="Trazado 3" d="M32.261,2.667a.537.537,0,0,0-.392-.261H8.827a.49.49,0,0,0,0,.98H31.15l-4.38,12.42H9.612L5.4,2.9A4.115,4.115,0,0,0,3.631.542,4.172,4.172,0,0,0,.33.215.472.472,0,0,0-.03.8a.487.487,0,0,0,.588.36,3.074,3.074,0,0,1,3.1.654,3.294,3.294,0,0,1,.784,1.34V3.19L8.631,15.936a.638.638,0,0,0,.033.229l1.209,3.922a.524.524,0,0,0,.458.36H26.705a.49.49,0,1,0,0-.98H10.69l-.85-2.615H27.1a.524.524,0,0,0,.458-.36L32.327,3.157A.533.533,0,0,0,32.261,2.667Z" transform="translate(0 0)" fill="#fff" stroke="#fff" stroke-width="1"/>
      </g>
      <rect id="Rectángulo_1343" data-name="Rectángulo 1343" width="37" height="37" transform="translate(-17872 -380)" fill="none"/>
    </g>
  </g>
</svg>
