<svg xmlns="http://www.w3.org/2000/svg" width="37" height="37" viewBox="0 0 37 37">
  <g id="Grupo_894" data-name="Grupo 894" transform="translate(17828 380)">
    <g id="Grupo_893" data-name="Grupo 893">
      <path id="Trazado_1042" data-name="Trazado 1042" d="M3.625,12.688a8.974,8.974,0,0,1,9.063-9.062,8.974,8.974,0,0,1,9.063,9.063,8.974,8.974,0,0,1-9.062,9.063A8.974,8.974,0,0,1,3.625,12.688ZM25.919,28.456a1.794,1.794,0,0,0,2.537-2.537L22.838,20.3a12.41,12.41,0,0,0,2.537-7.613A12.609,12.609,0,0,0,12.688,0,12.609,12.609,0,0,0,0,12.688,12.609,12.609,0,0,0,12.688,25.375,12.41,12.41,0,0,0,20.3,22.838Z" transform="translate(-17824 -376)" fill="#fff"/>
      <rect id="Rectángulo_1344" data-name="Rectángulo 1344" width="37" height="37" transform="translate(-17828 -380)" fill="none"/>
    </g>
  </g>
</svg>
