<svg xmlns="http://www.w3.org/2000/svg" viewBox="0 0 100 100"><defs><style>.cls-1{fill:#fff;}.cls-2{fill:none;}</style></defs><title>workplace1</title><g id="Capa_2" data-name="Capa 2"><g id="Layer_1" data-name="Layer 1"><path class="cls-1" d="M49.28,13.64H54.6A32.2,32.2,0,0,1,78.79,28.33c7.5,11.41,6.46,27.71-2.65,37.92a5.65,5.65,0,0,1-9.24-1.37c-2.56-5.57-4.58-11.38-7-17-2.27,5.45-4.29,11-6.64,16.43-1,2.89-4.51,4.76-7.4,3.42-2.19-.82-3.22-3.06-4.05-5.07C38.6,54.48,35.28,46.35,32,38.21h8c2.65,6.55,5.29,13.13,8,19.67q3-7.38,5.91-14.79c.88-2.22,2-4.71,4.52-5.46,2.74-1,5.7.92,6.74,3.44,2.62,5.95,4.81,12.09,7.37,18.06A26.26,26.26,0,0,0,76.4,44.54c-.28-11.33-9.46-21.66-20.69-23.22-13.35-2-26.95,7.13-30.8,20A29.14,29.14,0,0,0,35,73.05a27.72,27.72,0,0,0,24.87,4.89c0,2.53,0,5.07,0,7.6-1.59.28-3.17.58-4.76.82H49.64a36.73,36.73,0,0,1-24.1-12,37.9,37.9,0,0,1-9.31-21.61V47.54a37.74,37.74,0,0,1,9.32-21.92A37,37,0,0,1,49.28,13.64Z"/><rect class="cls-2" width="100" height="100"/></g></g></svg>