<svg xmlns="http://www.w3.org/2000/svg" viewBox="0 0 340 100"><defs><style>.cls-1{fill:#fff;}.cls-2{fill:none;}</style></defs><title>workplace</title><g id="Capa_2" data-name="Capa 2"><g id="Layer_1" data-name="Layer 1"><path class="cls-1" d="M54.92,7.18h5.32A32.21,32.21,0,0,1,84.43,21.87c7.5,11.41,6.47,27.71-2.64,37.93a5.66,5.66,0,0,1-9.25-1.38C70,52.85,68,47,65.57,41.41c-2.27,5.44-4.29,11-6.65,16.42-1,2.89-4.51,4.76-7.4,3.42-2.19-.82-3.22-3.06-4-5.07C44.24,48,40.92,39.9,37.64,31.75h8c2.66,6.56,5.29,13.13,8,19.68,2-4.92,4-9.86,5.91-14.8.88-2.21,2-4.7,4.51-5.46,2.74-1,5.7.92,6.74,3.45,2.63,5.94,4.82,12.08,7.37,18A26.18,26.18,0,0,0,82,38.08c-.27-11.33-9.45-21.66-20.68-23.22-13.36-2-27,7.14-30.8,20A29.16,29.16,0,0,0,40.62,66.6,27.76,27.76,0,0,0,65.5,71.48c0,2.54,0,5.07,0,7.6-1.59.28-3.18.58-4.77.83H55.29a36.79,36.79,0,0,1-24.1-12,37.87,37.87,0,0,1-9.31-21.62V41.08A37.62,37.62,0,0,1,31.2,19.16,37,37,0,0,1,54.92,7.18Z"/><path class="cls-1" d="M152.83,19h7.27c0,7.69,0,15.39,0,23.09,3.59-3.45,7.15-6.92,10.73-10.37h8.31L168.41,42.38q5.93,9.21,11.87,18.43H171.7q-4.12-6.82-8.27-13.64l-3.3,3.13c0,3.5,0,7,0,10.5h-7.27Q152.82,39.92,152.83,19Z"/><path class="cls-1" d="M219.18,19.08h7.24V60.82h-7.24Q219.18,39.94,219.18,19.08Z"/><path class="cls-1" d="M104.08,31.36C111.7,28.8,121,33,123.32,40.88c3,8.11-2,18.27-10.63,20.07-7.78,2.15-16.64-2.73-18.56-10.65C91.82,42.66,96.27,33.57,104.08,31.36Zm1.66,6.17c-7.24,3.18-6.36,16,1.66,17.49,6.33,1.42,11-5.85,9.23-11.49C115.86,38.68,110.3,35.4,105.74,37.53Z"/><path class="cls-1" d="M137.3,34.53a12.78,12.78,0,0,1,11.8-3.05c-.48,2.26-1,4.53-1.45,6.79-3.86-1.25-8.85.19-10.15,4.36-.47,6-.06,12.12-.2,18.18h-7.23q0-14.54,0-29h7.21Z"/><path class="cls-1" d="M190.92,34.42c4.5-4.3,12.31-4.94,17-.65,6.74,6.37,6.49,18.9-1.06,24.57-4.56,3.54-10.86,3.74-16,1.46.06,4.28.07,8.55.11,12.83h-7.22q0-20.44,0-40.9c2.28,0,4.57,0,6.85,0C190.66,32.41,190.83,33.75,190.92,34.42Zm4.85,3.12c-6.19,2.68-5.12,10.39-4.66,15.83,3.53,2.07,8.69,2.34,11.76-.73s3.23-8,1.66-11.78C203.11,37.61,199,36.32,195.77,37.54Z"/><path class="cls-1" d="M233.82,34.6a20,20,0,0,1,16.32-3.28,10,10,0,0,1,8,9.37c.17,6.71,0,13.42.06,20.13h-6.35c-.11-.69-.32-2-.43-2.74-4.13,3.76-10.88,5-15.42,1.27-4.74-3.75-4.14-12.07.93-15.27,4.33-2.89,9.76-2.11,14.66-2-.48-1.51-.74-3.37-2.32-4.18-3.89-2.09-8.57-.75-12.12,1.43C236.05,37.75,235,36.17,233.82,34.6Zm8.69,13.21c-2.81,1-4,5.38-1.25,7.14,4.87,2.84,12.08-1.54,10.67-7.41C248.81,47.36,245.52,46.67,242.51,47.81Z"/><path class="cls-1" d="M267.61,35.59c5.6-6.43,16.65-6.37,22.54-.35-1.41,1.51-2.78,3-4.17,4.56-2.83-2.24-6.67-3.74-10.19-2.22-6.76,2.9-6.46,14.48.5,17,3.49,1.49,7.08-.47,9.88-2.48,1.31,1.52,2.59,3.07,3.92,4.59-3.44,3.17-8,5.53-12.83,4.87-4.19-.63-8.51-2.51-10.91-6.16C262.5,49.47,262.82,40.91,267.61,35.59Z"/><path class="cls-1" d="M297.39,34.54c4.22-4.11,10.91-4.59,16.26-2.71,5.72,2.47,8,9,8.23,14.8V48.1c-7.36,0-14.71-.11-22.07.09.8,2.33,1.85,4.83,4.24,5.92,4.53,2.41,9.9.52,13.83-2.19,1.24,1.49,2.5,3,3.74,4.44-5.46,4.85-13.89,7.12-20.6,3.51C291.62,55.63,290,41.38,297.39,34.54Zm2.41,8c5,.06,10,.09,15.05,0-.67-1.68-1.3-3.57-2.92-4.61C307.66,35.13,300.76,37.24,299.8,42.58Z"/><rect class="cls-2" width="340" height="100"/></g></g></svg>